<?xml version="1.0" standalone="no"?><!DOCTYPE svg PUBLIC "-//W3C//DTD SVG 1.1//EN" "http://www.w3.org/Graphics/SVG/1.1/DTD/svg11.dtd"><svg class="icon" width="200px" height="200.00px" viewBox="0 0 1024 1024" version="1.1" xmlns="http://www.w3.org/2000/svg"><path d="M946.8 217.2c-1.6-18.1-10.1-34.5-24-46.2L818.6 83.6c-13.9-11.7-31.6-17.2-49.7-15.7-18.1 1.6-34.5 10.1-46.2 24L402.4 473.8s0 0.1-0.1 0.1c-0.4 0.5-0.9 1.1-1.3 1.6-0.1 0.1-0.2 0.3-0.3 0.5-0.3 0.5-0.7 0.9-1 1.4-0.1 0.1-0.2 0.3-0.3 0.4-1.2 1.9-2.2 3.9-3 6v0.1c-0.8 2.2-1.5 4.4-1.9 6.7v0.1l-34.4 196.1c-2.2 12.6 2.5 25.5 12.3 33.8 6.6 5.5 14.8 8.5 23.2 8.5 4.1 0 8.2-0.7 12.2-2.1l187.7-67.5c0.1 0 0.1-0.1 0.2-0.1 0.6-0.2 1.3-0.5 1.9-0.8 0.1 0 0.1-0.1 0.2-0.1 2.1-0.9 4.1-2.1 6.1-3.4 0.1 0 0.1-0.1 0.2-0.1 0.5-0.4 1.1-0.8 1.6-1.2 0.1-0.1 0.2-0.2 0.4-0.3 0.4-0.4 0.9-0.7 1.3-1.1l0.4-0.4c0.4-0.4 0.8-0.8 1.2-1.1l0.4-0.4c0.4-0.4 0.8-0.9 1.2-1.3l0.3-0.3 320.4-381.8c11.5-14.2 17.1-31.8 15.5-49.9z m-368 357.6l-98.1-82.3 217.8-259.6 98.1 82.3-217.8 259.6z m-137.1 63.4l12.9-73.5 34.7 29.1 22.8 19.1-70.4 25.3z m401.2-378.1l-98.1-82.3 30.6-36.5 98.1 82.3-30.6 36.5z" fill="#333333" /><path d="M835 519.1c-19.9 0-36 16.1-36 36v330.2H188.4V160.9h330.3c19.9 0 36-16.1 36-36s-16.1-36-36-36H187.9c-39.5 0-71.6 32.1-71.6 71.6v725.3c0 39.5 32.1 71.6 71.6 71.6h611.5c39.5 0 71.6-32.1 71.6-71.6V555.1c0-19.9-16.1-36-36-36z" fill="#333333" /></svg>